<svg xmlns="http://www.w3.org/2000/svg" viewBox="0 0 325.026 344.221"><defs><clipPath id="a"><path fill="none" d="M13.76051,205.42479C3.02211,132.20567,10.67123,57.0371,103.52218,43.41947S313.49035,186.09789,324.22875,259.317s-88.96845,35.63472-181.8194,49.25234S24.4989,278.64391,13.76051,205.42479Z"/></clipPath></defs><g data-name="Layer 2"><g clip-path="url(#a)" data-name="Layer 1"><path fill="#fff4f2" d="M13.76051,205.42479C3.02211,132.20567,10.67123,57.0371,103.52218,43.41947S313.49035,186.09789,324.22875,259.317s-88.96845,35.63472-181.8194,49.25234S24.4989,278.64391,13.76051,205.42479Z"/><path fill="#fed4c0" d="M81.94463,173.10475c1.9171-.51912,68.168-15.6557,68.168-15.6557s15.67651-4.78309,21.20826-14.41925a5.47409,5.47409,0,0,0-2.75163-7.69892l-34.8872-14.62415a9.273,9.273,0,0,1-4.57986-12.95444,9.52868,9.52868,0,0,1,12.108-3.99368l36.31157,15.21412s15.81985-5.79154,52.119,18.455c.13132.08789.26962.18834.41059.2789l.55413-.24121.00965.00266,46.93818-19.99735,19.725,46.27164-44.67751,19.51121-.613.26651s-.06448.15848-.2075.4513c-1.61517,3.18517-13.10872,22.88792-57.72173,39.23243l-7.89105,3.67342c-10.43653,15.42-31.30486,37.44366-34.22178,40.68456-2.40565,2.66622-10.68635,3.9918-13.34561,1.59833a6.50041,6.50041,0,0,1-.47666-9.17694c4.66714-5.18582,10.05751-11.78994,15.24588-18.56426,5.191-6.78374,10.17987-13.7377,14.04381-19.62173,0,0,1.95956-4.58388-3.5528-4.26844l-54.92916,31.704c-3.0209,1.92564-8.53927,1.586-10.47748-1.42809-1.91106-3.03751-.54712-11.17788,2.47372-13.10354L150.11672,202.295l.0026-.00941c.04259-.15439.67421-2.5943-1.52007-3.55217l-64.43905,23.873c-3.37925,1.19414-8.28333-3.1771-9.47773-6.55635s2.26254-9.47991,5.64452-10.68394l61.62057-24.298a.3112.3112,0,0,0,.03781-.062,2.48069,2.48069,0,0,0-2.44379-3.7761c-22.34284,3.15224-52.63243,11.08245-54.9737,11.18369-4.61381.17939-7.02014-1.13786-7.95551-4.591C75.692,180.35285,78.48191,174.0373,81.94463,173.10475Z"/><path fill="#eca085" d="M244.88663 167.7852a.50821.50821 0 01.60432-.31043.06134.06134 0 01.036.02006 11.35413 11.35413 0 016.75554 5.85756c1.84752 4.05734.76016 8.48777.3184 9.90116l-.613.26651s-.06448.15848-.2075.4513a.495.495 0 01-.26385-.62286c.16619-.45207 3.98271-11.09021-6.3301-14.92037A.4972.4972 0 01244.88663 167.7852zM229.62583 137.44433c.00273-.00988.00273-.00988.015-.01663.13132.08789.26962.18834.41059.2789l.55413-.24121.00965.00266c12.28419 7.77681 10.19757 18.61208 10.16836 18.718a.49594.49594 0 11-.97032-.20537c.08532-.4222 1.97754-10.43988-10.02438-17.84858A.49282.49282 0 01229.62583 137.44433zM160.791 178.58606c22.11908 6.10195 34.56063 32.07942 34.69942 32.375a.50006.50006 0 01-.90537.42492c-.15412-.32819-15.70984-32.78308-42.77792-33.07089a.5.5 0 01.01046-1A35.01292 35.01292 0 01160.791 178.58606zM227.32577 161.1846a.49964.49964 0 01.16075.88618c-.33908.24684-34.221 24.45484-60.41656 2.71853a.50024.50024 0 01.63889-.76993c25.60075 21.25211 58.85528-2.51406 59.1893-2.75723A.49843.49843 0 01227.32577 161.1846z"/><path fill="#b86a4b" d="M116.19825,242.26359c-.541-1.911-16.43406-67.98459-16.43406-67.98459s-4.962-15.6208-14.66078-21.042a5.47409,5.47409,0,0,0-7.667,2.83946L63.21213,191.12858a9.273,9.273,0,0,1-12.90124,4.72767A9.52868,9.52868,0,0,1,46.179,183.79466l14.798-36.48314S55.005,131.55892,78.83488,94.985c.08639-.13231.18525-.27175.27419-.41374l-.24753-.55134.00255-.00968L45.614,20.25279,91.65712,0l32.73811,71.50245.2735.60988s.15921.06267.45365.20233c3.20342,1.57865,23.03629,12.84618,39.8898,57.26941l3.7634,7.84853c15.53827,10.25955,37.79914,30.87471,41.07317,33.75438,2.69355,2.375,4.11372,10.64,1.75081,13.32647a6.50041,6.50041,0,0,1-9.17089.58155c-5.23884-4.60754-11.90416-9.92206-18.73736-15.03263-6.84264-5.11307-13.85318-10.02214-19.781-13.81856,0,0-4.606-1.907-4.22754,3.60138l32.32992,54.56308c1.96006,2.99869,1.68356,8.52058-1.3082,10.49313-3.01547,1.94566-11.17089.67488-13.131-2.32375l-32.96638-48.81543-.00945-.00249c-.15486-.04082-2.60183-.64451-3.53455,1.56058l24.60814,64.16189c1.2327,3.36538-3.08219,8.31912-6.44757,9.55207s-9.50515-2.154-10.74777-5.522l-25.00088-61.33874a.31134.31134,0,0,0-.06243-.03709,2.48069,2.48069,0,0,0-3.74791,2.4868c3.40748,22.30534,11.68348,52.50228,11.81148,54.84224.23213,4.61145-1.05752,7.03269-4.49977,8.00748C123.51736,248.433,117.17033,245.71542,116.19825,242.26359Z"/><path fill="#633322" d="M109.01609 79.39306a.50822.50822 0 01-.31732-.60073.06132.06132 0 01.01965-.03623 11.35409 11.35409 0 015.77993-6.82206c4.036-1.8938 8.47853-.85717 9.89688-.43159l.2735.60988s.15921.06267.45365.20233a.49494.49494 0 01-.61981.27095c-.45394-.161-11.135-3.85564-14.847 6.50028A.4972.4972 0 01109.01609 79.39306zM78.85169 94.99976c-.00992-.00262-.00992-.00262-.01681-.01479.08639-.13231.18525-.27175.27419-.41374l-.24753-.55134.00255-.00968c7.63586-12.3723 18.49427-10.4097 18.6005-10.3817a.49594.49594 0 11-.19427.9726c-.42314-.08049-10.4618-1.85805-17.7328 10.22779A.49281.49281 0 0178.85169 94.99976zM120.77773 163.35966c5.84866-22.18739 31.68218-34.92513 31.97617-35.06729a.50006.50006 0 11.43525.90045c-.32641.15785-32.60133 16.08362-32.57964 43.15322a.5.5 0 01-1.00008.001A35.01289 35.01289 0 01120.77773 163.35966zM102.6167 97.02823a.49964.49964 0 01.88429-.17086c.2507.33624 24.8445 33.93917 3.4091 60.38152a.50024.50024 0 01-.77718-.63c20.958-25.84206-3.1868-58.82269-3.43377-59.15391A.4984.4984 0 01102.6167 97.02823z"/><path fill="#eca085" d="M176.65594,111.31185c.483,1.92654,14.37055,68.4505,14.37055,68.4505s4.48733,15.76372,14.01772,21.47576a5.47409,5.47409,0,0,0,7.74933-2.6063l15.27786-34.60592a9.273,9.273,0,0,1,13.03831-4.33535,9.52867,9.52867,0,0,1,3.76519,12.181L228.98038,207.8905s5.49291,15.926-19.43217,51.76255c-.09035.12965-.19338.266-.28657.40527l.23073.55857-.00284.0096,33.77084,83.59485-61.29455-17.43769L163.29854,281.747l-.25493-.61787s-.15724-.06746-.44732-.216c-3.15422-1.67481-22.63726-13.537-38.13961-58.44956l-3.52433-7.95876c-15.22089-10.72477-36.84813-32.00371-40.03357-34.98108-2.6205-2.45538-3.79007-10.75956-1.347-13.37332a6.50043,6.50043,0,0,1,9.18429-.30394c5.09709,4.76387,11.59865,10.27753,18.27417,15.59242,6.68488,5.31766,13.54376,10.4365,19.35405,14.41045,0,0,4.54622,2.04544,4.33452-3.47188l-30.665-55.51585c-1.86847-3.05659-1.4251-8.56759,1.62494-10.44877,3.07293-1.85358,11.1862-.33673,13.05469,2.7198l31.475,49.79008.00936.00277c.15356.04549,2.58115.7229,3.58013-1.453l-22.65649-64.87675c-1.13036-3.40112,3.33236-8.2221,6.73348-9.35271s9.43567,2.44048,10.57586,5.8445l23.13444,62.06676a.3108.3108,0,0,0,.06128.039,2.48068,2.48068,0,0,0,3.8214-2.37232c-2.73136-22.39819-10.09036-52.8316-10.14753-55.17436-.09256-4.61636,1.26971-6.99749,4.73987-7.86773C169.52675,104.924,175.7887,107.83221,176.65594,111.31185Z"/><path fill="#b86a4b" d="M178.90928 274.3251a.50822.50822 0 01.299.61005.06136.06136 0 01-.02073.03561 11.35415 11.35415 0 01-5.98361 6.64415c-4.09138 1.77087-8.50057.60036-9.9054.13209l-.25493-.61787s-.15724-.06746-.44732-.216a.495.495 0 01.62772-.25208c.44886.17466 11.01332 4.19063 15.03681-6.0483A.4972.4972 0 01178.90928 274.3251zM209.53186 259.63777c.00983.00291.00983.00291.01635.01528-.09035.12965-.19338.266-.28657.40527l.23073.55857-.00284.0096c-8.00652 12.13572-18.80062 9.84564-18.90595 9.81443a.49594.49594 0 11.22359-.96628c.42052.09325 10.40083 2.17359 18.034-9.68683A.49281.49281 0 01209.53186 259.63777zM169.69234 190.0412c-6.517 22.00037-32.7239 33.951-33.02206 34.08423a.50006.50006 0 11-.40781-.9132c.331-.14791 33.07281-15.09034 33.86978-42.14821a.5.5 0 01.99965.02927A35.013 35.013 0 01169.69234 190.0412zM185.83906 256.89152a.49964.49964 0 01-.889.144c-.24042-.34366-23.80674-34.675-1.58148-60.457a.50024.50024 0 01.75778.65326c-21.73 25.19642 1.40641 58.89216 1.64326 59.23069A.49845.49845 0 01185.83906 256.89152z"/><path fill="#633322" d="M230.07353,187.75992c-1.71,1.01025-61.55,33.22021-61.55,33.22021s-13.84,8.77979-16.61,19.54a5.47408,5.47408,0,0,0,4.7,6.68994l37.52,4.81983a9.273,9.273,0,0,1,7.86,11.27,9.52868,9.52868,0,0,1-10.61,7.06982l-39.05-5.00976s-13.71,9.79-55.15-3.93018c-.15-.0498-.31-.10986-.47-.15967l-.47.37989h-.01L45.4464,302.04542,0,274.2913,62.86351,223.36l.52-.41993s.02-.16992.08-.49023c.71-3.5,6.55-25.5498,45.21-53.16992l6.63-5.63965c5.96-17.64014,20.22-44.42041,22.17-48.32031,1.61-3.21,9.24-6.68994,12.44-5.08985a6.50043,6.50043,0,0,1,2.9,8.71973c-3.12,6.24023-6.56,14.04-9.76,21.9502-3.2,7.91992-6.16,15.95019-8.32,22.6499,0,0-.67,4.93994,4.56,3.16992l44.52-45.16992c2.4-2.65967,7.81-3.79981,10.48-1.40967,2.65,2.41992,3.5,10.62988,1.1,13.28955l-38.8,44.32031v.00977c0,.16016.04,2.68017,2.41,3.02l55.77-40.1499c2.94-2.04981,8.83.85986,10.88,3.7998s.34,9.74024-2.6,11.80029l-52.94,39.81006a.31128.31128,0,0,0-.02.06983,2.48068,2.48068,0,0,0,3.36,2.99023c20.7-8.98047,47.79-24.68017,50.02-25.40039,4.4-1.3999,7.07-.77,8.89,2.31006C234.1735,179.11,233.16356,185.94009,230.07353,187.75992Z"/><path fill="#471301" d="M74.41356 236.21988a.50822.50822 0 01-.5.46.06138.06138 0 01-.04-.00976 11.35417 11.35417 0 01-8.07-3.8501c-2.86-3.41992-2.99-7.98-2.94-9.46l.52-.41993s.02-.16992.08-.49023a.495.495 0 01.42.53027c-.04.48-.89 11.75 10.07 12.69971A.4972.4972 0 0174.41356 236.21988zM97.19352 261.40982c0 .01026 0 .01026-.01.02-.15-.0498-.31-.10986-.47-.15967l-.47.37989h-.01c-13.91-4.23-14.78-15.23-14.78-15.33985a.49594.49594 0 11.99-.06006c.03.42969.87 10.58985 14.41 14.54A.4928.4928 0 0197.19352 261.40982zM152.60862 203.444c-22.94531 0-41.84716-21.7334-42.05957-21.98144a.50006.50006 0 11.75977-.65039c.23584.27539 23.8623 27.4248 50.03223 20.5039a.5.5 0 01.25586.9668A35.01323 35.01323 0 01152.60862 203.444zM93.09739 237.91275a.49964.49964 0 01-.39062-.81152c.26123-.32813 26.48535-32.67481 57.51806-18.6875a.50024.50024 0 01-.41113.91211C119.48314 205.64713 93.74632 237.401 93.489 237.72427A.4984.4984 0 0193.09739 237.91275z"/></g></g></svg>